<svg width="79" height="75" viewBox="0 0 79 75" fill="none" xmlns="http://www.w3.org/2000/svg">
<path d="M3.08423 15.9024V8.73438C3.08423 5.56737 5.6516 3 8.81861 3H70.4632C73.6302 3 76.1976 5.56737 76.1976 8.73438V48.8751C76.1976 52.0421 73.6302 54.6094 70.4632 54.6094H60.428L63.7818 70.2603C64.0749 71.6282 62.4357 72.563 61.4076 71.6141L46.0921 57.4766H8.81861C5.6516 57.4766 3.08423 54.9093 3.08423 51.7422V48.8751" stroke="url(#paint0_linear_0_1)" stroke-width="4.30079"/>
<path d="M56 16V43H47.6208L34.2573 28.8145H34.0406V43H24V16H32.5237L45.6704 30.1328H45.9594V16H56Z" fill="#00875F"/>
<defs>
<linearGradient id="paint0_linear_0_1" x1="3.08423" y1="3" x2="63.2952" y2="77.547" gradientUnits="userSpaceOnUse">
<stop stop-color="#81D8F7"/>
<stop offset="1" stop-color="#00875F"/>
</linearGradient>
</defs>
</svg>
