<svg width="144" height="144" viewBox="0 0 144 144" fill="none" xmlns="http://www.w3.org/2000/svg">
<path d="M66.387 128.131L64.5909 139.453L57.7578 138.369L57.9507 137.153L63.4128 138.019L64.0197 134.193L58.9114 133.383L59.1044 132.167L64.2126 132.977L64.823 129.129L59.2725 128.249L59.4654 127.033L66.387 128.131Z" fill="white"/>
<path d="M47.1755 135.231L46.4141 129.672L46.3322 129.636L41.6932 132.792L40.1999 132.127L45.8236 128.356L44.8603 121.653L46.3536 122.318L47.1515 127.795L47.2333 127.831L51.8359 124.757L53.3293 125.422L47.6237 129.157L48.6688 135.895L47.1755 135.231Z" fill="white"/>
<path d="M38.9458 117.959L31.6626 126.812L28.6713 124.351C27.9768 123.78 27.5122 123.187 27.2775 122.574C27.0376 121.961 26.9853 121.355 27.1206 120.756C27.2558 120.157 27.538 119.597 27.9671 119.075C28.3962 118.553 28.8929 118.167 29.457 117.916C30.0183 117.663 30.6237 117.59 31.2732 117.7C31.9204 117.812 32.5884 118.151 33.2771 118.717L35.4212 120.481L34.6388 121.432L32.5293 119.697C32.0538 119.306 31.6044 119.074 31.1811 119.001C30.7578 118.928 30.3663 118.978 30.0066 119.151C29.6417 119.324 29.3135 119.588 29.0219 119.943C28.7303 120.297 28.5357 120.669 28.4383 121.057C28.338 121.443 28.3682 121.836 28.5289 122.234C28.6872 122.634 29.007 123.033 29.4882 123.429L31.3729 124.979L37.8737 117.077L38.9458 117.959Z" fill="white"/>
<path d="M27.8445 107.484L18.5779 114.233L17.7607 113.111L26.0319 107.087L22.8947 102.78L23.8901 102.055L27.8445 107.484Z" fill="white"/>
<path d="M11.8303 89.2987C12.962 88.8731 14.0169 88.7097 14.9949 88.8083C15.9729 88.907 16.8194 89.2285 17.5345 89.773C18.2495 90.3174 18.7791 91.0471 19.1233 91.9623C19.4674 92.8774 19.5499 93.7753 19.3708 94.656C19.1917 95.5367 18.7668 96.3363 18.0962 97.055C17.4255 97.7737 16.5244 98.3458 15.3927 98.7714C14.261 99.197 13.2061 99.3604 12.2281 99.2618C11.2501 99.1631 10.4036 98.8416 9.68856 98.2971C8.97351 97.7527 8.44391 97.023 8.09976 96.1078C7.75561 95.1927 7.6731 94.2948 7.85222 93.4141C8.03135 92.5334 8.45623 91.7338 9.12686 91.0151C9.79749 90.2964 10.6987 89.7243 11.8303 89.2987ZM12.3032 90.5561C11.3741 90.9056 10.6484 91.3559 10.1261 91.9071C9.60253 92.4549 9.27573 93.0542 9.14575 93.7051C9.01445 94.3525 9.07096 95.001 9.31528 95.6507C9.5596 96.3004 9.9451 96.8272 10.4718 97.2312C10.9971 97.6316 11.6379 97.8671 12.394 97.9376C13.1488 98.0046 13.9907 97.8634 14.9198 97.514C15.8489 97.1646 16.5753 96.716 17.0989 96.1682C17.6212 95.617 17.948 95.0177 18.0793 94.3702C18.2092 93.7194 18.1521 93.0691 17.9078 92.4194C17.6634 91.7697 17.2786 91.2446 16.7532 90.8442C16.2266 90.4402 15.5858 90.2048 14.831 90.1378C14.0749 90.0673 13.2323 90.2067 12.3032 90.5561Z" fill="white"/>
<path d="M15.6618 79.8876L4.22859 80.7246L3.94577 76.8615C3.88037 75.9682 3.97929 75.2239 4.24251 74.6284C4.50201 74.0332 4.88593 73.5785 5.39425 73.2644C5.90257 72.9503 6.49355 72.7686 7.16719 72.7193C7.84082 72.67 8.44824 72.764 8.98945 73.0012C9.53065 73.2385 9.97097 73.6309 10.3104 74.1786C10.6461 74.7265 10.8464 75.4433 10.9112 76.3291L11.1401 79.4553L9.88959 79.5469L9.66399 76.4653C9.61931 75.8549 9.49402 75.3702 9.28813 75.0111C9.08197 74.6483 8.809 74.3951 8.46922 74.2516C8.12546 74.1047 7.72468 74.0479 7.26691 74.0815C6.80914 74.115 6.41532 74.2299 6.08545 74.4261C5.75558 74.6224 5.51137 74.9153 5.3528 75.3048C5.19051 75.6946 5.13198 76.1984 5.17721 76.8162L5.3554 79.2502L15.5604 78.5031L15.6618 79.8876ZM10.1318 74.882L15.0618 71.6923L15.1795 73.3001L10.2462 76.4451L10.1318 74.882Z" fill="white"/>
<path d="M15.5534 64.6355L4.29215 62.4901L5.58692 55.6937L6.79662 55.9242L5.76164 61.3569L9.56671 62.0818L10.5346 57.001L11.7444 57.2315L10.7764 62.3122L14.6035 63.0413L15.6552 57.5207L16.8649 57.7511L15.5534 64.6355Z" fill="white"/>
<path d="M23.6163 41.8766L22.7728 43.0626L15.8702 32.9883L16.7007 31.8205L28.4825 35.0342L27.639 36.2202L17.7894 33.419L17.7375 33.492L23.6163 41.8766ZM20.2784 38.8433L23.6783 34.0628L24.6818 34.7765L21.282 39.557L20.2784 38.8433Z" fill="white"/>
<path d="M32.3895 19.7993C31.9795 19.4016 31.4903 19.2319 30.9219 19.2901C30.3536 19.3484 29.8002 19.5965 29.2617 20.0344C28.868 20.3547 28.5753 20.6986 28.3836 21.0661C28.1948 21.4313 28.1086 21.7925 28.1249 22.1496C28.144 22.5044 28.269 22.8236 28.4998 23.1074C28.6929 23.3447 28.9153 23.5029 29.1672 23.5819C29.4195 23.6556 29.6814 23.6759 29.9527 23.6429C30.2217 23.6069 30.484 23.545 30.7397 23.4573C30.9931 23.3666 31.22 23.2759 31.4203 23.1851L32.5213 22.6936C32.8024 22.566 33.1283 22.4404 33.4992 22.3168C33.8729 22.1908 34.2654 22.1145 34.6766 22.0878C35.0884 22.0559 35.4963 22.1138 35.9002 22.2615C36.3041 22.4092 36.6756 22.6914 37.0147 23.1083C37.4056 23.5889 37.6328 24.1256 37.6965 24.7184C37.7631 25.3088 37.6491 25.9138 37.3545 26.5334C37.0629 27.1506 36.5754 27.7371 35.8922 28.2928C35.2553 28.8108 34.6202 29.1566 33.987 29.3302C33.3566 29.5014 32.7587 29.5115 32.1933 29.3605C31.6308 29.2071 31.1344 28.9013 30.7041 28.4432L31.8158 27.539C32.1178 27.8513 32.4568 28.0374 32.8326 28.0973C33.209 28.1519 33.5927 28.1092 33.9838 27.9691C34.3754 27.8237 34.7479 27.6074 35.101 27.3201C35.5121 26.9857 35.8271 26.6189 36.0459 26.2197C36.2624 25.8175 36.3684 25.4186 36.364 25.0229C36.3573 24.6243 36.2221 24.2629 35.9584 23.9386C35.7182 23.6434 35.4402 23.4702 35.1245 23.4191C34.8088 23.3681 34.4692 23.3941 34.1058 23.4973C33.7424 23.6005 33.369 23.7358 32.9857 23.9033L31.6371 24.4807C30.7798 24.8461 29.9979 25.0083 29.2912 24.9674C28.5845 24.9265 27.9874 24.6064 27.5 24.0072C27.095 23.5092 26.8764 22.9655 26.8442 22.3759C26.8126 21.7811 26.9419 21.1949 27.2321 20.6174C27.5229 20.0345 27.952 19.5123 28.5194 19.0508C29.0926 18.5846 29.6857 18.2729 30.2987 18.1159C30.9094 17.9559 31.4886 17.9465 32.0364 18.0878C32.5871 18.2267 33.0522 18.5146 33.4317 18.9516L32.3895 19.7993Z" fill="white"/>
<path d="M54.1565 17.8628L51.3818 6.7399L55.1401 5.80234C56.0127 5.58465 56.7653 5.56422 57.3978 5.74103C58.0331 5.91331 58.5511 6.23216 58.9518 6.69757C59.3525 7.16297 59.6346 7.72335 59.7981 8.37871C59.9616 9.03406 59.9762 9.66309 59.8419 10.2658C59.7113 10.8676 59.4088 11.3969 58.9343 11.8537C58.4589 12.3069 57.7885 12.6415 56.9231 12.8574L54.2293 13.5294L53.9312 12.3345L56.5816 11.6733C57.179 11.5243 57.6331 11.3014 57.9436 11.0047C58.2542 10.708 58.4472 10.3637 58.5225 9.97189C58.6005 9.57551 58.584 9.15464 58.4729 8.70929C58.3618 8.26394 58.1792 7.88644 57.925 7.57677C57.6745 7.26621 57.3415 7.05697 56.9261 6.94906C56.5099 6.83752 55.9994 6.85718 55.3947 7.00802L53.0268 7.59874L55.5034 17.5268L54.1565 17.8628Z" fill="white"/>
<path d="M79.0275 9.72596C78.9766 10.934 78.7144 11.9687 78.2411 12.8302C77.7678 13.6917 77.1407 14.345 76.36 14.7902C75.5793 15.2353 74.7005 15.4373 73.7237 15.3961C72.7468 15.3549 71.8882 15.0797 71.1477 14.5704C70.4073 14.061 69.8375 13.3572 69.4384 12.4589C69.0393 11.5606 68.8652 10.5075 68.9161 9.29951C68.9671 8.09151 69.2292 7.05676 69.7025 6.19526C70.1759 5.33376 70.8029 4.68043 71.5836 4.23528C72.3643 3.79012 73.2431 3.58814 74.2199 3.62934C75.1968 3.67054 76.0554 3.9458 76.7959 4.45511C77.5364 4.96442 78.1061 5.66822 78.5053 6.56652C78.9044 7.46482 79.0784 8.51796 79.0275 9.72596ZM77.6853 9.66935C77.7271 8.6776 77.5965 7.83358 77.2934 7.13729C76.9941 6.44116 76.5704 5.90599 76.0222 5.53177C75.4777 5.15772 74.8587 4.95607 74.1652 4.92682C73.4717 4.89757 72.8361 5.04631 72.2584 5.37303C71.6843 5.69991 71.217 6.1975 70.8564 6.8658C70.4995 7.53426 70.3002 8.36436 70.2583 9.35611C70.2165 10.3479 70.3453 11.1918 70.6446 11.8879C70.9476 12.5842 71.3714 13.1194 71.9159 13.4935C72.4641 13.8677 73.0849 14.0694 73.7784 14.0986C74.4719 14.1279 75.1056 13.9791 75.6797 13.6522C76.2574 13.3255 76.7248 12.8279 77.0816 12.1594C77.4422 11.4911 77.6435 10.6611 77.6853 9.66935Z" fill="#C4C4C2"/>
<path d="M94.8999 10.82C95.0194 10.2615 94.9038 9.75675 94.5529 9.30585C94.2021 8.85495 93.6982 8.51744 93.0413 8.29333C92.5609 8.12946 92.1141 8.06378 91.7009 8.09628C91.2912 8.12999 90.9392 8.24847 90.6452 8.45174C90.3546 8.65622 90.1503 8.93152 90.0322 9.27764C89.9334 9.56725 89.9173 9.83973 89.984 10.0951C90.0554 10.3481 90.177 10.5809 90.349 10.7933C90.5222 11.0022 90.7138 11.1918 90.9239 11.362C91.1351 11.5287 91.3324 11.6729 91.5156 11.7946L92.5163 12.4672C92.7736 12.6377 93.0529 12.8474 93.3545 13.0962C93.6595 13.3461 93.9325 13.6383 94.1732 13.9728C94.4187 14.305 94.586 14.6814 94.6751 15.1022C94.7642 15.5229 94.722 15.9876 94.5485 16.4961C94.3484 17.0824 94.0141 17.5598 93.5453 17.9282C93.0801 18.2979 92.5068 18.5222 91.8253 18.6012C91.1474 18.6814 90.3917 18.5793 89.5582 18.295C88.7812 18.0299 88.1511 17.675 87.6681 17.2302C87.1885 16.7867 86.8628 16.2852 86.6909 15.7258C86.5225 15.1676 86.5183 14.5846 86.6784 13.9768L88.0346 14.4395C87.9302 14.8612 87.9522 15.2473 88.1008 15.5976C88.2541 15.9457 88.4939 16.2483 88.8202 16.5055C89.1512 16.7603 89.5321 16.9613 89.963 17.1083C90.4645 17.2794 90.9426 17.3518 91.3971 17.3254C91.8528 17.2956 92.2472 17.1739 92.5803 16.9603C92.9146 16.7431 93.1493 16.4368 93.2842 16.0412C93.4071 15.6809 93.4065 15.3535 93.2823 15.0587C93.1581 14.764 92.9558 14.49 92.6756 14.2367C92.3953 13.9833 92.0825 13.7386 91.7373 13.5026L90.5324 12.6657C89.7679 12.1328 89.2155 11.556 88.8753 10.9352C88.535 10.3145 88.4896 9.63853 88.739 8.90744C88.9463 8.29997 89.2913 7.82622 89.7739 7.48621C90.2614 7.14386 90.8269 6.9425 91.4704 6.88211C92.1188 6.8194 92.789 6.90613 93.4813 7.14229C94.1806 7.38086 94.7594 7.7183 95.2177 8.15462C95.6773 8.5874 95.9925 9.07346 96.1634 9.61278C96.3378 10.1533 96.3404 10.7003 96.1713 11.2538L94.8999 10.82Z" fill="#C4C4C2"/>
<path d="M110.298 19.1926C110.562 18.6861 110.585 18.1688 110.367 17.6407C110.149 17.1126 109.754 16.653 109.18 16.262C108.761 15.976 108.348 15.7936 107.941 15.7148C107.537 15.6381 107.166 15.6585 106.829 15.7761C106.494 15.8957 106.224 16.1066 106.018 16.4087C105.845 16.6615 105.757 16.9199 105.753 17.1838C105.755 17.4467 105.81 17.7034 105.919 17.954C106.03 18.2016 106.164 18.4353 106.322 18.6554C106.481 18.8724 106.632 19.0639 106.777 19.23L107.562 20.1449C107.764 20.3779 107.978 20.6544 108.202 20.9746C108.43 21.2968 108.615 21.6512 108.758 22.0377C108.906 22.4233 108.967 22.8307 108.94 23.26C108.914 23.6892 108.75 24.1258 108.447 24.5698C108.098 25.0815 107.648 25.4525 107.098 25.6827C106.551 25.915 105.939 25.9784 105.261 25.873C104.586 25.7696 103.885 25.4698 103.158 24.9736C102.479 24.511 101.967 24.001 101.62 23.4436C101.276 22.8883 101.095 22.3182 101.079 21.7332C101.065 21.1504 101.217 20.5873 101.533 20.0442L102.717 20.8515C102.504 21.2302 102.422 21.6082 102.472 21.9854C102.527 22.3617 102.677 22.7173 102.923 23.0522C103.174 23.386 103.488 23.6812 103.864 23.9377C104.302 24.2363 104.743 24.4335 105.188 24.5292C105.636 24.6219 106.048 24.6097 106.426 24.4926C106.806 24.3724 107.114 24.1396 107.35 23.7943C107.564 23.4799 107.651 23.1641 107.609 22.8469C107.568 22.5298 107.446 22.2118 107.244 21.8929C107.041 21.574 106.805 21.2548 106.535 20.9353L105.597 19.8075C105.002 19.0902 104.623 18.387 104.461 17.698C104.298 17.009 104.435 16.3455 104.87 15.7073C105.232 15.177 105.69 14.8123 106.246 14.6133C106.807 14.4132 107.406 14.3698 108.042 14.4831C108.684 14.5955 109.307 14.8577 109.911 15.2698C110.521 15.6861 110.989 16.1656 111.315 16.7083C111.643 17.2479 111.817 17.8004 111.838 18.3657C111.862 18.9332 111.719 19.4611 111.408 19.9495L110.298 19.1926Z" fill="#C4C4C2"/>
<path d="M121.576 25.4664L113.212 33.3063L112.262 32.2935L120.626 24.4536L121.576 25.4664Z" fill="#C4C4C2"/>
<path d="M118.366 39.5016L128.235 33.6678L130.274 37.1179C130.681 37.8054 130.897 38.4426 130.923 39.0296C130.953 39.6148 130.833 40.1343 130.564 40.5882C130.298 41.0403 129.924 41.4087 129.442 41.6936C129.018 41.9442 128.623 42.0757 128.257 42.0881C127.894 42.1036 127.56 42.0368 127.255 41.8876C126.952 41.7416 126.678 41.5501 126.434 41.313L126.337 41.3699C126.497 41.6833 126.57 42.0495 126.558 42.4686C126.545 42.8877 126.42 43.3064 126.182 43.7247C125.944 44.143 125.564 44.506 125.044 44.8136C124.549 45.1061 124.038 45.2566 123.51 45.2653C122.982 45.2741 122.459 45.1042 121.941 44.7559C121.423 44.4076 120.934 43.8447 120.474 43.0673L118.366 39.5016ZM120.133 40.0699L121.534 42.4406C121.996 43.2212 122.474 43.6861 122.97 43.8353C123.471 43.9857 123.938 43.9328 124.372 43.6764C124.706 43.4789 124.964 43.2115 125.146 42.8741C125.331 42.5349 125.416 42.1575 125.4 41.742C125.387 41.3247 125.254 40.9008 124.999 40.4703L123.564 38.0418L120.133 40.0699ZM124.604 37.4265L125.915 39.643C126.127 40.0028 126.39 40.2855 126.702 40.491C127.016 40.6998 127.352 40.8134 127.71 40.8317C128.069 40.8532 128.423 40.7615 128.77 40.5564C129.203 40.3 129.482 39.9316 129.605 39.4511C129.732 38.9687 129.602 38.3999 129.214 37.7446L127.881 35.4895L124.604 37.4265Z" fill="#C4C4C2"/>
<path d="M136.506 50.9905L125.605 54.539L125.176 53.219L136.076 49.6705L136.506 50.9905Z" fill="#C4C4C2"/>
<path d="M127.587 62.3744L138.978 61.0888L139.134 62.4682L128.966 63.6157L129.564 68.911L128.34 69.0491L127.587 62.3744Z" fill="#C4C4C2"/>
<path d="M139.446 78.1601L128.028 77.1304L128.153 75.7478L139.57 76.7775L139.446 78.1601Z" fill="#C4C4C2"/>
<path d="M125.766 88.4569L126.87 85.0961L137.761 88.6756L136.608 92.1852C136.26 93.2417 135.745 94.074 135.062 94.6823C134.383 95.2917 133.571 95.6633 132.628 95.797C131.688 95.932 130.654 95.8142 129.527 95.4436C128.392 95.0708 127.482 94.5477 126.796 93.8744C126.113 93.2023 125.679 92.4075 125.494 91.4902C125.312 90.5741 125.402 89.5629 125.766 88.4569ZM127.607 86.7994L126.964 88.7563C126.668 89.6567 126.596 90.4601 126.749 91.1663C126.902 91.8725 127.251 92.4765 127.797 92.9781C128.344 93.4797 129.06 93.8761 129.946 94.1674C130.825 94.4564 131.629 94.5616 132.358 94.483C133.091 94.4056 133.721 94.1374 134.249 93.6785C134.78 93.2208 135.186 92.5665 135.466 91.7156L136.158 89.6098L127.607 86.7994Z" fill="#C4C4C2"/>
<path d="M120.543 100.516L121.36 99.3118L128.487 109.229L127.683 110.415L115.832 107.466L116.649 106.262L126.559 108.841L126.609 108.767L120.543 100.516ZM123.948 103.474L120.657 108.33L119.637 107.639L122.929 102.783L123.948 103.474Z" fill="#C4C4C2"/>
<path d="M108.79 114.462L111.503 112.192L118.861 120.983L116.028 123.354C115.175 124.068 114.298 124.502 113.397 124.658C112.498 124.817 111.612 124.704 110.741 124.319C109.871 123.937 109.056 123.291 108.294 122.381C107.528 121.466 107.031 120.541 106.804 119.607C106.579 118.675 106.63 117.771 106.957 116.894C107.286 116.02 107.897 115.209 108.79 114.462ZM111.229 114.027L109.649 115.349C108.923 115.957 108.437 116.602 108.194 117.282C107.951 117.963 107.929 118.66 108.128 119.374C108.327 120.089 108.725 120.804 109.324 121.519C109.918 122.229 110.545 122.743 111.206 123.061C111.869 123.382 112.546 123.487 113.236 123.376C113.929 123.268 114.619 122.927 115.306 122.352L117.006 120.929L111.229 114.027Z" fill="#C4C4C2"/>
<path d="M98.3885 121.731L103.137 132.165L96.8399 135.031L96.3298 133.91L101.363 131.619L99.7589 128.094L95.0514 130.236L94.5413 129.115L99.2488 126.973L97.6351 123.427L92.5199 125.755L92.0098 124.634L98.3885 121.731Z" fill="#C4C4C2"/>
<path d="M80.289 136.349C80.4489 136.897 80.7902 137.287 81.313 137.517C81.8359 137.747 82.4396 137.805 83.1242 137.691C83.6247 137.607 84.0491 137.453 84.3975 137.228C84.7421 137.004 84.9956 136.733 85.158 136.414C85.3167 136.096 85.3659 135.757 85.3055 135.396C85.2551 135.095 85.1399 134.847 84.96 134.654C84.7771 134.465 84.5595 134.318 84.3073 134.213C84.0557 134.111 83.7971 134.035 83.5314 133.985C83.2664 133.938 83.0243 133.905 82.8053 133.885L81.6052 133.768C81.2979 133.74 80.9524 133.688 80.569 133.612C80.1818 133.537 79.8029 133.409 79.4322 133.229C79.0585 133.053 78.7326 132.801 78.4545 132.473C78.1764 132.145 77.993 131.716 77.9043 131.186C77.8021 130.575 77.8699 129.996 78.1076 129.45C78.3416 128.903 78.7398 128.434 79.3021 128.041C79.8607 127.649 80.5744 127.38 81.443 127.234C82.2527 127.099 82.9757 127.112 83.612 127.274C84.2446 127.437 84.7693 127.724 85.1861 128.135C85.5992 128.546 85.8796 129.057 86.0272 129.668L84.6139 129.905C84.5056 129.484 84.303 129.155 84.0059 128.917C83.7058 128.683 83.3511 128.531 82.9419 128.459C82.5296 128.392 82.0989 128.396 81.6499 128.471C81.1272 128.558 80.6721 128.722 80.2845 128.961C79.8976 129.203 79.6082 129.497 79.4164 129.844C79.2252 130.193 79.1641 130.574 79.233 130.987C79.2958 131.362 79.4518 131.65 79.701 131.85C79.9502 132.051 80.2583 132.196 80.6252 132.286C80.9921 132.376 81.3836 132.443 81.7995 132.487L83.2573 132.652C84.1831 132.758 84.9431 133.003 85.5371 133.388C86.1312 133.773 86.492 134.347 86.6195 135.108C86.7254 135.741 86.6466 136.322 86.3831 136.851C86.1166 137.383 85.7144 137.829 85.1766 138.187C84.6357 138.55 84.0046 138.792 83.2832 138.913C82.5544 139.035 81.8848 139.012 81.2743 138.846C80.6644 138.683 80.1562 138.405 79.7499 138.011C79.3398 137.618 79.0779 137.138 78.964 136.571L80.289 136.349Z" fill="#C4C4C2"/>
</svg>
