<svg width="139" height="16" viewBox="0 0 139 16" fill="none" xmlns="http://www.w3.org/2000/svg">
<path d="M0.76001 15V1.00001H3.80001L11.14 11L10.48 10.9C10.4133 10.46 10.36 10.04 10.32 9.64001C10.28 9.24001 10.24 8.84668 10.2 8.46001C10.1733 8.07335 10.1467 7.68001 10.12 7.28001C10.1067 6.88001 10.0933 6.44668 10.08 5.98001C10.08 5.51335 10.08 5.00668 10.08 4.46001V1.00001H13.38V15H10.3L2.64001 4.68001L3.66001 4.82001C3.72668 5.46001 3.78001 6.00668 3.82001 6.46001C3.87334 6.90001 3.91334 7.29335 3.94001 7.64001C3.98001 7.98668 4.00668 8.30001 4.02001 8.58001C4.03334 8.86001 4.04001 9.14001 4.04001 9.42001C4.05334 9.68668 4.06001 9.98668 4.06001 10.32V15H0.76001Z" fill="url(#paint0_linear_220_6)"/>
<path d="M20.4128 15.2C19.2395 15.2 18.2195 14.9667 17.3528 14.5C16.4862 14.02 15.8128 13.3733 15.3328 12.56C14.8528 11.7333 14.6128 10.7933 14.6128 9.74001C14.6128 8.92668 14.7462 8.18001 15.0128 7.50001C15.2795 6.82001 15.6528 6.23335 16.1328 5.74001C16.6128 5.23334 17.1795 4.84668 17.8328 4.58001C18.4995 4.30001 19.2262 4.16001 20.0128 4.16001C20.7595 4.16001 21.4395 4.29334 22.0528 4.56001C22.6795 4.82668 23.2195 5.20001 23.6728 5.68001C24.1262 6.16001 24.4728 6.72668 24.7128 7.38001C24.9528 8.03335 25.0595 8.74668 25.0328 9.52001L25.0128 10.38H16.5528L16.0928 8.58001H22.4128L22.0728 8.96001V8.56001C22.0462 8.22668 21.9395 7.93335 21.7528 7.68001C21.5795 7.41335 21.3462 7.20668 21.0528 7.06001C20.7595 6.91335 20.4262 6.84001 20.0528 6.84001C19.5328 6.84001 19.0862 6.94668 18.7128 7.16001C18.3528 7.36001 18.0795 7.66001 17.8928 8.06001C17.7062 8.44668 17.6128 8.92668 17.6128 9.50001C17.6128 10.0867 17.7328 10.6 17.9728 11.04C18.2262 11.4667 18.5862 11.8 19.0528 12.04C19.5328 12.28 20.0995 12.4 20.7528 12.4C21.2062 12.4 21.6062 12.3333 21.9528 12.2C22.3128 12.0667 22.6995 11.84 23.1128 11.52L24.6128 13.64C24.1995 14 23.7595 14.2933 23.2928 14.52C22.8262 14.7467 22.3462 14.9133 21.8528 15.02C21.3728 15.14 20.8928 15.2 20.4128 15.2Z" fill="url(#paint1_linear_220_6)"/>
<path d="M32.353 15L30.093 11.58L29.053 10.12L24.853 4.38001H28.693L30.873 7.64001L32.013 9.20001L36.153 15H32.353ZM24.753 15L29.033 9.04001L30.753 11.1L28.533 15H24.753ZM31.773 10.38L30.073 8.34001L32.173 4.38001H35.953L31.773 10.38Z" fill="url(#paint2_linear_220_6)"/>
<path d="M37.6219 15V1.70001H40.8219V15H37.6219ZM35.7419 7.18001V4.38001H42.8819V7.18001H35.7419Z" fill="url(#paint3_linear_220_6)"/>
<path d="M43.8506 15V1.00001H47.2506V12H53.4906V15H43.8506Z" fill="url(#paint4_linear_220_6)"/>
<path d="M59.1675 15.2C57.9942 15.2 56.9742 14.9667 56.1075 14.5C55.2408 14.02 54.5675 13.3733 54.0875 12.56C53.6075 11.7333 53.3675 10.7933 53.3675 9.74001C53.3675 8.92668 53.5008 8.18001 53.7675 7.50001C54.0342 6.82001 54.4075 6.23335 54.8875 5.74001C55.3675 5.23334 55.9342 4.84668 56.5875 4.58001C57.2542 4.30001 57.9808 4.16001 58.7675 4.16001C59.5142 4.16001 60.1942 4.29334 60.8075 4.56001C61.4342 4.82668 61.9742 5.20001 62.4275 5.68001C62.8808 6.16001 63.2275 6.72668 63.4675 7.38001C63.7075 8.03335 63.8142 8.74668 63.7875 9.52001L63.7675 10.38H55.3075L54.8475 8.58001H61.1675L60.8275 8.96001V8.56001C60.8008 8.22668 60.6942 7.93335 60.5075 7.68001C60.3342 7.41335 60.1008 7.20668 59.8075 7.06001C59.5142 6.91335 59.1808 6.84001 58.8075 6.84001C58.2875 6.84001 57.8408 6.94668 57.4675 7.16001C57.1075 7.36001 56.8342 7.66001 56.6475 8.06001C56.4608 8.44668 56.3675 8.92668 56.3675 9.50001C56.3675 10.0867 56.4875 10.6 56.7275 11.04C56.9808 11.4667 57.3408 11.8 57.8075 12.04C58.2875 12.28 58.8542 12.4 59.5075 12.4C59.9608 12.4 60.3608 12.3333 60.7075 12.2C61.0675 12.0667 61.4542 11.84 61.8675 11.52L63.3675 13.64C62.9542 14 62.5142 14.2933 62.0475 14.52C61.5808 14.7467 61.1008 14.9133 60.6075 15.02C60.1275 15.14 59.6475 15.2 59.1675 15.2Z" fill="url(#paint5_linear_220_6)"/>
<path d="M67.6909 15L63.2509 4.38001H66.7909L69.431 12.32L68.6509 12.4L71.3709 4.38001H74.8709L70.211 15H67.6909Z" fill="url(#paint6_linear_220_6)"/>
<path d="M80.1074 15.2C78.934 15.2 77.914 14.9667 77.0474 14.5C76.1807 14.02 75.5074 13.3733 75.0274 12.56C74.5474 11.7333 74.3074 10.7933 74.3074 9.74001C74.3074 8.92668 74.4407 8.18001 74.7074 7.50001C74.974 6.82001 75.3474 6.23335 75.8274 5.74001C76.3074 5.23334 76.874 4.84668 77.5274 4.58001C78.194 4.30001 78.9207 4.16001 79.7074 4.16001C80.454 4.16001 81.134 4.29334 81.7474 4.56001C82.374 4.82668 82.914 5.20001 83.3674 5.68001C83.8207 6.16001 84.1674 6.72668 84.4074 7.38001C84.6474 8.03335 84.754 8.74668 84.7273 9.52001L84.7074 10.38H76.2474L75.7874 8.58001H82.1074L81.7673 8.96001V8.56001C81.7407 8.22668 81.634 7.93335 81.4473 7.68001C81.274 7.41335 81.0407 7.20668 80.7474 7.06001C80.454 6.91335 80.1207 6.84001 79.7474 6.84001C79.2274 6.84001 78.7807 6.94668 78.4073 7.16001C78.0473 7.36001 77.774 7.66001 77.5873 8.06001C77.4007 8.44668 77.3074 8.92668 77.3074 9.50001C77.3074 10.0867 77.4274 10.6 77.6674 11.04C77.9207 11.4667 78.2807 11.8 78.7474 12.04C79.2274 12.28 79.794 12.4 80.4473 12.4C80.9007 12.4 81.3007 12.3333 81.6474 12.2C82.0074 12.0667 82.394 11.84 82.8074 11.52L84.3074 13.64C83.894 14 83.454 14.2933 82.9874 14.52C82.5207 14.7467 82.0407 14.9133 81.5474 15.02C81.0674 15.14 80.5874 15.2 80.1074 15.2Z" fill="url(#paint7_linear_220_6)"/>
<path d="M85.5861 15V0.200012H88.7861V15H85.5861Z" fill="url(#paint8_linear_220_6)"/>
<path d="M90.7803 15V1.00001H94.1803V15H90.7803ZM92.3603 9.64001V6.80001H99.6003V9.64001H92.3603ZM92.3603 4.00001V1.00001H100.42V4.00001H92.3603Z" fill="url(#paint9_linear_220_6)"/>
<path d="M101.428 15V4.38001H104.468L104.608 7.84001L104.008 7.18001C104.168 6.60668 104.428 6.09335 104.788 5.64001C105.161 5.18668 105.594 4.82668 106.088 4.56001C106.581 4.29334 107.108 4.16001 107.668 4.16001C107.908 4.16001 108.128 4.18001 108.328 4.22001C108.541 4.26001 108.734 4.30668 108.908 4.36001L108.028 7.90001C107.881 7.80668 107.681 7.73335 107.428 7.68001C107.188 7.61335 106.934 7.58001 106.668 7.58001C106.374 7.58001 106.101 7.63335 105.848 7.74001C105.594 7.83335 105.381 7.97335 105.208 8.16001C105.034 8.34668 104.894 8.56668 104.788 8.82001C104.694 9.07335 104.648 9.36001 104.648 9.68001V15H101.428Z" fill="url(#paint10_linear_220_6)"/>
<path d="M113.88 15.2C112.774 15.2 111.787 14.96 110.92 14.48C110.067 14 109.387 13.3467 108.88 12.52C108.387 11.6933 108.14 10.7467 108.14 9.68001C108.14 8.61335 108.387 7.66668 108.88 6.84001C109.387 6.01335 110.067 5.36001 110.92 4.88001C111.787 4.40001 112.774 4.16001 113.88 4.16001C114.987 4.16001 115.967 4.40001 116.82 4.88001C117.687 5.36001 118.367 6.01335 118.86 6.84001C119.354 7.66668 119.6 8.61335 119.6 9.68001C119.6 10.7467 119.354 11.6933 118.86 12.52C118.367 13.3467 117.687 14 116.82 14.48C115.967 14.96 114.987 15.2 113.88 15.2ZM113.88 12.44C114.36 12.44 114.787 12.32 115.16 12.08C115.534 11.84 115.827 11.5133 116.04 11.1C116.254 10.6867 116.354 10.2133 116.34 9.68001C116.354 9.14668 116.254 8.67334 116.04 8.26001C115.827 7.83334 115.534 7.50001 115.16 7.26001C114.787 7.02001 114.36 6.90001 113.88 6.90001C113.4 6.90001 112.967 7.02001 112.58 7.26001C112.207 7.50001 111.914 7.83334 111.7 8.26001C111.487 8.67334 111.387 9.14668 111.4 9.68001C111.387 10.2133 111.487 10.6867 111.7 11.1C111.914 11.5133 112.207 11.84 112.58 12.08C112.967 12.32 113.4 12.44 113.88 12.44Z" fill="url(#paint11_linear_220_6)"/>
<path d="M120.493 15V4.38001H123.533L123.633 6.54001L122.993 6.78001C123.139 6.30001 123.399 5.86668 123.773 5.48001C124.159 5.08001 124.619 4.76001 125.153 4.52001C125.686 4.28001 126.246 4.16001 126.833 4.16001C127.633 4.16001 128.306 4.32668 128.853 4.66001C129.399 4.98001 129.813 5.46668 130.093 6.12001C130.373 6.76001 130.513 7.54668 130.513 8.48001V15H127.293V8.74001C127.293 8.31335 127.233 7.96001 127.113 7.68001C126.993 7.40001 126.806 7.19335 126.553 7.06001C126.313 6.91335 126.013 6.84668 125.653 6.86001C125.373 6.86001 125.113 6.90668 124.873 7.00001C124.633 7.08001 124.426 7.20668 124.253 7.38001C124.079 7.54001 123.939 7.72668 123.833 7.94001C123.739 8.15335 123.693 8.38668 123.693 8.64001V15H122.113C121.739 15 121.419 15 121.153 15C120.886 15 120.666 15 120.493 15Z" fill="url(#paint12_linear_220_6)"/>
<path d="M132.868 15V1.70001H136.068V15H132.868ZM130.988 7.18001V4.38001H138.128V7.18001H130.988Z" fill="url(#paint13_linear_220_6)"/>
<defs>
<linearGradient id="paint0_linear_220_6" x1="-21.5" y1="6.99998" x2="159.498" y2="6.37113" gradientUnits="userSpaceOnUse">
<stop stop-color="white"/>
<stop offset="0.505209" stop-color="#00B37E"/>
<stop offset="1" stop-color="#015F43"/>
</linearGradient>
<linearGradient id="paint1_linear_220_6" x1="-21.5" y1="6.99998" x2="159.498" y2="6.37113" gradientUnits="userSpaceOnUse">
<stop stop-color="white"/>
<stop offset="0.505209" stop-color="#00B37E"/>
<stop offset="1" stop-color="#015F43"/>
</linearGradient>
<linearGradient id="paint2_linear_220_6" x1="-21.5" y1="6.99998" x2="159.498" y2="6.37113" gradientUnits="userSpaceOnUse">
<stop stop-color="white"/>
<stop offset="0.505209" stop-color="#00B37E"/>
<stop offset="1" stop-color="#015F43"/>
</linearGradient>
<linearGradient id="paint3_linear_220_6" x1="-21.5" y1="6.99998" x2="159.498" y2="6.37113" gradientUnits="userSpaceOnUse">
<stop stop-color="white"/>
<stop offset="0.505209" stop-color="#00B37E"/>
<stop offset="1" stop-color="#015F43"/>
</linearGradient>
<linearGradient id="paint4_linear_220_6" x1="-21.5" y1="6.99998" x2="159.498" y2="6.37113" gradientUnits="userSpaceOnUse">
<stop stop-color="white"/>
<stop offset="0.505209" stop-color="#00B37E"/>
<stop offset="1" stop-color="#015F43"/>
</linearGradient>
<linearGradient id="paint5_linear_220_6" x1="-21.5" y1="6.99998" x2="159.498" y2="6.37113" gradientUnits="userSpaceOnUse">
<stop stop-color="white"/>
<stop offset="0.505209" stop-color="#00B37E"/>
<stop offset="1" stop-color="#015F43"/>
</linearGradient>
<linearGradient id="paint6_linear_220_6" x1="-21.5" y1="6.99998" x2="159.498" y2="6.37113" gradientUnits="userSpaceOnUse">
<stop stop-color="white"/>
<stop offset="0.505209" stop-color="#00B37E"/>
<stop offset="1" stop-color="#015F43"/>
</linearGradient>
<linearGradient id="paint7_linear_220_6" x1="-21.5" y1="6.99998" x2="159.498" y2="6.37113" gradientUnits="userSpaceOnUse">
<stop stop-color="white"/>
<stop offset="0.505209" stop-color="#00B37E"/>
<stop offset="1" stop-color="#015F43"/>
</linearGradient>
<linearGradient id="paint8_linear_220_6" x1="-21.5" y1="6.99998" x2="159.498" y2="6.37113" gradientUnits="userSpaceOnUse">
<stop stop-color="white"/>
<stop offset="0.505209" stop-color="#00B37E"/>
<stop offset="1" stop-color="#015F43"/>
</linearGradient>
<linearGradient id="paint9_linear_220_6" x1="-21.5" y1="6.99998" x2="159.498" y2="6.37113" gradientUnits="userSpaceOnUse">
<stop stop-color="white"/>
<stop offset="0.505209" stop-color="#00B37E"/>
<stop offset="1" stop-color="#015F43"/>
</linearGradient>
<linearGradient id="paint10_linear_220_6" x1="-21.5" y1="6.99998" x2="159.498" y2="6.37113" gradientUnits="userSpaceOnUse">
<stop stop-color="white"/>
<stop offset="0.505209" stop-color="#00B37E"/>
<stop offset="1" stop-color="#015F43"/>
</linearGradient>
<linearGradient id="paint11_linear_220_6" x1="-21.5" y1="6.99998" x2="159.498" y2="6.37113" gradientUnits="userSpaceOnUse">
<stop stop-color="white"/>
<stop offset="0.505209" stop-color="#00B37E"/>
<stop offset="1" stop-color="#015F43"/>
</linearGradient>
<linearGradient id="paint12_linear_220_6" x1="-21.5" y1="6.99998" x2="159.498" y2="6.37113" gradientUnits="userSpaceOnUse">
<stop stop-color="white"/>
<stop offset="0.505209" stop-color="#00B37E"/>
<stop offset="1" stop-color="#015F43"/>
</linearGradient>
<linearGradient id="paint13_linear_220_6" x1="-21.5" y1="6.99998" x2="159.498" y2="6.37113" gradientUnits="userSpaceOnUse">
<stop stop-color="white"/>
<stop offset="0.505209" stop-color="#00B37E"/>
<stop offset="1" stop-color="#015F43"/>
</linearGradient>
</defs>
</svg>
